<?xml version="1.0" encoding="UTF-8" standalone="no"?>
<!-- Created with Inkscape (http://www.inkscape.org/) -->

<svg
   width="14.000001mm"
   height="14.000002mm"
   viewBox="0 0 14.000001 14.000002"
   version="1.1"
   id="svg1"
   xml:space="preserve"
   sodipodi:docname="favicon.svg"
   inkscape:version="1.3.2 (091e20ef0f, 2023-11-25)"
   xmlns:inkscape="http://www.inkscape.org/namespaces/inkscape"
   xmlns:sodipodi="http://sodipodi.sourceforge.net/DTD/sodipodi-0.dtd"
   xmlns="http://www.w3.org/2000/svg"
   xmlns:svg="http://www.w3.org/2000/svg"><sodipodi:namedview
     id="namedview1"
     pagecolor="#ffffff"
     bordercolor="#000000"
     borderopacity="0.25"
     inkscape:showpageshadow="2"
     inkscape:pageopacity="0.0"
     inkscape:pagecheckerboard="0"
     inkscape:deskcolor="#d1d1d1"
     inkscape:document-units="mm"
     inkscape:zoom="4.8853419"
     inkscape:cx="20.571743"
     inkscape:cy="49.228898"
     inkscape:window-width="1836"
     inkscape:window-height="1011"
     inkscape:window-x="0"
     inkscape:window-y="0"
     inkscape:window-maximized="1"
     inkscape:current-layer="layer1" /><defs
     id="defs1" /><g
     id="layer1"
     transform="translate(-110.59405,-38.001593)"><rect
       style="fill:#10b981;fill-opacity:1;stroke:none;stroke-width:0.685289;stroke-dasharray:none;stroke-opacity:1;paint-order:fill markers stroke"
       id="rect1"
       width="14"
       height="14"
       x="110.59405"
       y="38.001595"
       rx="4"
       ry="4" /><g
       style="fill:#ffffff"
       id="g2"
       transform="matrix(0.01,0,0,0.01,112.79405,49.801595)"><path
         d="m 240,-400 v 80 h -80 q -33,0 -56.5,-23.5 Q 80,-367 80,-400 v -400 q 0,-33 23.5,-56.5 Q 127,-880 160,-880 h 400 q 33,0 56.5,23.5 23.5,23.5 23.5,56.5 v 80 h -80 v -80 H 160 v 400 z m 160,320 q -33,0 -56.5,-23.5 Q 320,-127 320,-160 v -400 q 0,-33 23.5,-56.5 Q 367,-640 400,-640 h 400 q 33,0 56.5,23.5 23.5,23.5 23.5,56.5 v 400 q 0,33 -23.5,56.5 Q 833,-80 800,-80 Z m 0,-80 H 800 V -560 H 400 Z m 200,-200 z"
         id="path1-5" /></g></g></svg>
